<svg version="1.1" viewBox="0.0 0.0 1682.6666666666666 1682.6666666666666" fill="none" stroke="none" stroke-linecap="square" stroke-miterlimit="10" xmlns:xlink="http://www.w3.org/1999/xlink" xmlns="http://www.w3.org/2000/svg"><clipPath id="p.0"><path d="m0 0l682.6667 0l0 682.6667l-682.6667 0l0 -682.6667z" clip-rule="nonzero"/></clipPath><g clip-path="url(#p.0)"><path fill="#000000" fill-opacity="0.0" d="m0 0l682.6667 0l0 682.6667l-682.6667 0z" fill-rule="evenodd"/><path fill="#000000" fill-opacity="0.0" d="m143.63255 58.501312l432.81885 0l0 491.21262l-432.81885 0z" fill-rule="evenodd"/><path fill="#000000" d="m177.7888 128.94131l-0.125 -4.21875q-2.5625 2.53125 -5.203125 3.65625q-2.640625 1.125 -5.546875 1.125q-2.6875 0 -4.59375 -0.6875q-1.90625 -0.6875 -3.140625 -1.890625q-1.234375 -1.203125 -1.8125 -2.828125q-0.578125 -1.625 -0.578125 -3.53125q0 -4.71875 3.515625 -7.390625q3.515625 -2.671875 10.390625 -2.671875l6.5 0l0 -2.75q0 -2.78125 -1.78125 -4.453125q-1.78125 -1.671875 -5.4375 -1.671875q-2.65625 0 -5.234375 0.59375q-2.578125 0.59375 -5.328125 1.6875l0 -4.90625q1.03125 -0.375 2.296875 -0.734375q1.265625 -0.359375 2.671875 -0.640625q1.40625 -0.28125 2.9375 -0.453125q1.53125 -0.171875 3.09375 -0.171875q2.84375 0 5.125 0.625q2.28125 0.625 3.859375 1.90625q1.578125 1.28125 2.421875 3.21875q0.84375 1.9375 0.84375 4.5625l0 21.625l-4.875 0zm-0.59375 -14.28125l-6.90625 0q-2.03125 0 -3.5 0.40625q-1.46875 0.40625 -2.40625 1.15625q-0.9375 0.75 -1.390625 1.796875q-0.453125 1.046875 -0.453125 2.359375q0 0.90625 0.28125 1.734375q0.28125 0.828125 0.90625 1.46875q0.625 0.640625 1.625 1.015625q1.0 0.375 2.4375 0.375q1.875 0 4.296875 -1.140625q2.421875 -1.140625 5.109375 -3.609375l0 -5.5625zm76.84375 -5.90625l-26.875 0l0 -4.59375l26.875 0l0 4.59375zm0 10.875l-26.875 0l0 -4.59375l26.875 0l0 4.59375zm63.124985 22.4375q-14.40625 -13.34375 -14.40625 -29.5q0 -3.78125 0.765625 -7.546875q0.765625 -3.765625 2.46875 -7.546875q1.703125 -3.78125 4.5 -7.5625q2.796875 -3.78125 6.796875 -7.5l3.15625 3.21875q-12.125 11.96875 -12.125 26.53125q0 7.25 3.0625 13.9375q3.0625 6.6875 9.0625 12.625l-3.28125 3.34375zm42.5625 -13.125l-25.65625 0l0 -5.0625l10.5 0l0 -29.8125l-9.78125 5.3125l-2.0 -4.625l13.0 -6.84375l4.8125 0l0 35.96875l9.125 0l0 5.0625zm30.96875 -14.46875l-18.6875 0l0 -5.125l18.6875 0l0 5.125zm38.53125 14.03125q-1.84375 0.46875 -3.8125 0.671875q-1.96875 0.203125 -4.0 0.203125q-5.90625 0 -8.8125 -2.671875q-2.90625 -2.671875 -2.90625 -8.203125l0 -16.375l-8.78125 0l0 -4.5625l8.78125 0l0 -8.625l5.4375 -1.40625l0 10.03125l14.09375 0l0 4.5625l-14.09375 0l0 15.9375q0 3.375 1.796875 5.046875q1.796875 1.671875 5.296875 1.671875q1.5 0 3.28125 -0.234375q1.78125 -0.234375 3.71875 -0.734375l0 4.6875zm16.3125 -46.09375q14.40625 13.34375 14.40625 29.6875q0 3.375 -0.6875 7.0q-0.6875 3.625 -2.34375 7.421875q-1.65625 3.796875 -4.453125 7.703125q-2.796875 3.90625 -7.046875 7.84375l-3.15625 -3.21875q6.09375 -6.03125 9.09375 -12.59375q3.0 -6.5625 3.0 -13.75q0 -14.875 -12.09375 -26.75l3.28125 -3.34375z" fill-rule="nonzero"/><path fill="#000000" d="m489.7888 96.67569q0 1.78125 -0.734375 3.359375q-0.71875 1.578125 -2.1875 2.75q-1.453125 1.171875 -3.65625 1.859375q-2.203125 0.671875 -5.140625 0.671875q-1.625 0 -2.921875 -0.109375q-1.28125 -0.09375 -2.40625 -0.265625l0 -3.25q1.28125 0.234375 2.71875 0.359375q1.4375 0.125 2.9375 0.125q2.046875 0 3.484375 -0.359375q1.453125 -0.375 2.359375 -1.0625q0.921875 -0.6875 1.34375 -1.65625q0.421875 -0.984375 0.421875 -2.21875q0 -1.125 -0.5 -1.953125q-0.5 -0.828125 -1.40625 -1.390625q-0.90625 -0.5625 -2.171875 -0.84375q-1.265625 -0.28125 -2.75 -0.28125l-3.109375 0l0 -2.984375l3.140625 0q1.234375 0 2.234375 -0.3125q1.015625 -0.328125 1.734375 -0.9375q0.71875 -0.609375 1.09375 -1.484375q0.390625 -0.890625 0.390625 -2.015625q0 -2.1875 -1.328125 -3.1875q-1.328125 -1.0 -3.90625 -1.0q-1.375 0 -2.84375 0.28125q-1.453125 0.265625 -3.125 0.796875l0 -3.15625q0.71875 -0.25 1.515625 -0.453125q0.796875 -0.203125 1.59375 -0.328125q0.8125 -0.140625 1.59375 -0.203125q0.796875 -0.078125 1.53125 -0.078125q2.15625 0 3.796875 0.46875q1.65625 0.46875 2.75 1.34375q1.109375 0.875 1.671875 2.125q0.5625 1.25 0.5625 2.8125q0 2.328125 -1.203125 3.921875q-1.1875 1.578125 -3.265625 2.515625q1.0625 0.15625 2.09375 0.65625q1.03125 0.5 1.84375 1.28125q0.828125 0.78125 1.328125 1.84375q0.515625 1.0625 0.515625 2.359375z" fill-rule="nonzero"/><path fill="#000000" d="m184.44505 227.69131q0 3.90625 -1.078125 6.984375q-1.078125 3.078125 -3.0625 5.21875q-1.984375 2.140625 -4.828125 3.28125q-2.84375 1.140625 -6.40625 1.140625q-2.78125 0 -5.6875 -0.53125q-2.90625 -0.53125 -5.75 -1.6875l0 -42.3125l5.4375 0l0 12.15625l-0.25 5.8125q2.34375 -3.15625 5.015625 -4.453125q2.671875 -1.296875 5.734375 -1.296875q2.6875 0 4.71875 1.125q2.03125 1.125 3.40625 3.171875q1.375 2.046875 2.0625 4.9375q0.6875 2.890625 0.6875 6.453125zm-5.5625 0.25q0 -2.46875 -0.359375 -4.53125q-0.359375 -2.0625 -1.140625 -3.53125q-0.78125 -1.46875 -2.0 -2.296875q-1.21875 -0.828125 -2.90625 -0.828125q-1.03125 0 -2.09375 0.328125q-1.0625 0.328125 -2.203125 1.09375q-1.140625 0.765625 -2.40625 2.03125q-1.265625 1.265625 -2.703125 3.140625l0 15.21875q1.59375 0.625 3.25 0.984375q1.65625 0.359375 3.15625 0.359375q1.875 0 3.578125 -0.59375q1.703125 -0.59375 3.0 -1.984375q1.296875 -1.390625 2.0625 -3.6875q0.765625 -2.296875 0.765625 -5.703125zm75.15625 -4.1875l-26.875 0l0 -4.59375l26.875 0l0 4.59375zm0 10.875l-26.875 0l0 -4.59375l26.875 0l0 4.59375zm70.062485 -3.09375q0 2.6875 -1.09375 5.046875q-1.09375 2.359375 -3.28125 4.125q-2.1875 1.765625 -5.5 2.78125q-3.3125 1.015625 -7.71875 1.015625q-2.4375 0 -4.375 -0.15625q-1.9375 -0.15625 -3.625 -0.40625l0 -4.875q1.9375 0.34375 4.09375 0.53125q2.15625 0.1875 4.40625 0.1875q3.0625 0 5.234375 -0.546875q2.171875 -0.546875 3.546875 -1.578125q1.375 -1.03125 2.0 -2.5q0.625 -1.46875 0.625 -3.3125q0 -1.6875 -0.75 -2.9375q-0.75 -1.25 -2.109375 -2.09375q-1.359375 -0.84375 -3.25 -1.265625q-1.890625 -0.421875 -4.140625 -0.421875l-4.65625 0l0 -4.46875l4.71875 0q1.84375 0 3.359375 -0.484375q1.515625 -0.484375 2.59375 -1.390625q1.078125 -0.90625 1.65625 -2.234375q0.578125 -1.328125 0.578125 -3.015625q0 -3.28125 -2.0 -4.78125q-2.0 -1.5 -5.875 -1.5q-2.0625 0 -4.25 0.40625q-2.1875 0.40625 -4.6875 1.21875l0 -4.75q1.0625 -0.375 2.265625 -0.671875q1.203125 -0.296875 2.40625 -0.5q1.203125 -0.203125 2.390625 -0.3125q1.1875 -0.109375 2.28125 -0.109375q3.25 0 5.71875 0.703125q2.46875 0.703125 4.125 2.015625q1.65625 1.3125 2.5 3.1875q0.84375 1.875 0.84375 4.21875q0 3.5 -1.796875 5.875q-1.796875 2.375 -4.921875 3.78125q1.59375 0.25 3.140625 1.0q1.546875 0.75 2.78125 1.921875q1.234375 1.171875 2.0 2.765625q0.765625 1.59375 0.765625 3.53125zm34.75 11.96875q-1.84375 0.46875 -3.8125 0.671875q-1.96875 0.203125 -4.0 0.203125q-5.90625 0 -8.8125 -2.671875q-2.90625 -2.671875 -2.90625 -8.203125l0 -16.375l-8.78125 0l0 -4.5625l8.78125 0l0 -8.625l5.4375 -1.40625l0 10.03125l14.09375 0l0 4.5625l-14.09375 0l0 15.9375q0 3.375 1.796875 5.046875q1.796875 1.671875 5.296875 1.671875q1.5 0 3.28125 -0.234375q1.78125 -0.234375 3.71875 -0.734375l0 4.6875zm28.6875 13.5625q-14.40625 -13.34375 -14.40625 -29.5q0 -3.78125 0.765625 -7.546875q0.765625 -3.765625 2.46875 -7.546875q1.703125 -3.78125 4.5 -7.5625q2.796875 -3.78125 6.796875 -7.5l3.15625 3.21875q-12.125 11.96875 -12.125 26.53125q0 7.25 3.0625 13.9375q3.0625 6.6875 9.0625 12.625l-3.28125 3.34375zm42.5625 -13.125l-25.65625 0l0 -5.0625l10.5 0l0 -29.8125l-9.78125 5.3125l-2.0 -4.625l13.0 -6.84375l4.8125 0l0 35.96875l9.125 0l0 5.0625zm30.96875 -14.46875l-18.6875 0l0 -5.125l18.6875 0l0 5.125zm38.53125 14.03125q-1.84375 0.46875 -3.8125 0.671875q-1.96875 0.203125 -4.0 0.203125q-5.90625 0 -8.8125 -2.671875q-2.90625 -2.671875 -2.90625 -8.203125l0 -16.375l-8.78125 0l0 -4.5625l8.78125 0l0 -8.625l5.4375 -1.40625l0 10.03125l14.09375 0l0 4.5625l-14.09375 0l0 15.9375q0 3.375 1.796875 5.046875q1.796875 1.671875 5.296875 1.671875q1.5 0 3.28125 -0.234375q1.78125 -0.234375 3.71875 -0.734375l0 4.6875zm16.31253 -46.09375q14.40625 13.34375 14.40625 29.6875q0 3.375 -0.6875 7.0q-0.6875 3.625 -2.34375 7.421875q-1.65625 3.796875 -4.453125 7.703125q-2.796875 3.90625 -7.046875 7.84375l-3.15625 -3.21875q6.09375 -6.03125 9.09375 -12.59375q3.0 -6.5625 3.0 -13.75q0 -14.875 -12.09375 -26.75l3.28125 -3.34375z" fill-rule="nonzero"/><path fill="#000000" d="m560.69507 219.94131l-17.9375 0l0 -3.25l7.046875 -7.0q1.71875 -1.703125 2.796875 -2.953125q1.09375 -1.25 1.6875 -2.28125q0.609375 -1.03125 0.8125 -1.9375q0.21875 -0.921875 0.21875 -1.984375q0 -1.0 -0.28125 -1.90625q-0.265625 -0.90625 -0.828125 -1.59375q-0.5625 -0.6875 -1.46875 -1.078125q-0.890625 -0.40625 -2.140625 -0.40625q-1.71875 0 -3.140625 0.78125q-1.40625 0.765625 -2.59375 1.984375l-2.0 -2.390625q1.53125 -1.625 3.546875 -2.59375q2.015625 -0.984375 4.671875 -0.984375q1.8125 0 3.296875 0.546875q1.5 0.53125 2.578125 1.5625q1.078125 1.015625 1.671875 2.5q0.59375 1.46875 0.59375 3.328125q0 1.5625 -0.421875 2.890625q-0.40625 1.328125 -1.25 2.65625q-0.84375 1.328125 -2.125 2.75q-1.28125 1.40625 -3.03125 3.09375l-4.9375 4.8125l13.234375 0l0 3.453125z" fill-rule="nonzero"/><path fill="#000000" d="m182.00755 357.78506q-2.125 0.8125 -4.359375 1.203125q-2.234375 0.390625 -4.609375 0.390625q-7.4375 0 -11.453125 -4.03125q-4.015625 -4.03125 -4.015625 -11.78125q0 -3.71875 1.15625 -6.75q1.15625 -3.03125 3.25 -5.1875q2.09375 -2.15625 5.0 -3.328125q2.90625 -1.171875 6.40625 -1.171875q2.4375 0 4.5625 0.34375q2.125 0.34375 4.0625 1.125l0 5.1875q-2.03125 -1.0625 -4.140625 -1.546875q-2.109375 -0.484375 -4.359375 -0.484375q-2.09375 0 -3.953125 0.796875q-1.859375 0.796875 -3.265625 2.296875q-1.40625 1.5 -2.21875 3.65625q-0.8125 2.15625 -0.8125 4.875q0 5.6875 2.765625 8.515625q2.765625 2.828125 7.671875 2.828125q2.21875 0 4.296875 -0.5q2.078125 -0.5 4.015625 -1.5l0 5.0625zm72.03125 -19.03125l-26.875 0l0 -4.59375l26.875 0l0 4.59375zm0 10.875l-26.875 0l0 -4.59375l26.875 0l0 4.59375zm70.062485 -3.09375q0 2.6875 -1.09375 5.046875q-1.09375 2.359375 -3.28125 4.125q-2.1875 1.765625 -5.5 2.78125q-3.3125 1.015625 -7.71875 1.015625q-2.4375 0 -4.375 -0.15625q-1.9375 -0.15625 -3.625 -0.40625l0 -4.875q1.9375 0.34375 4.09375 0.53125q2.15625 0.1875 4.40625 0.1875q3.0625 0 5.234375 -0.546875q2.171875 -0.546875 3.546875 -1.578125q1.375 -1.03125 2.0 -2.5q0.625 -1.46875 0.625 -3.3125q0 -1.6875 -0.75 -2.9375q-0.75 -1.25 -2.109375 -2.09375q-1.359375 -0.84375 -3.25 -1.265625q-1.890625 -0.421875 -4.140625 -0.421875l-4.65625 0l0 -4.46875l4.71875 0q1.84375 0 3.359375 -0.484375q1.515625 -0.484375 2.59375 -1.390625q1.078125 -0.90625 1.65625 -2.234375q0.578125 -1.328125 0.578125 -3.015625q0 -3.28125 -2.0 -4.78125q-2.0 -1.5 -5.875 -1.5q-2.0625 0 -4.25 0.40625q-2.1875 0.40625 -4.6875 1.21875l0 -4.75q1.0625 -0.375 2.265625 -0.671875q1.203125 -0.296875 2.40625 -0.5q1.203125 -0.203125 2.390625 -0.3125q1.1875 -0.109375 2.28125 -0.109375q3.25 0 5.71875 0.703125q2.46875 0.703125 4.125 2.015625q1.65625 1.3125 2.5 3.1875q0.84375 1.875 0.84375 4.21875q0 3.5 -1.796875 5.875q-1.796875 2.375 -4.921875 3.78125q1.59375 0.25 3.140625 1.0q1.546875 0.75 2.78125 1.921875q1.234375 1.171875 2.0 2.765625q0.765625 1.59375 0.765625 3.53125zm34.75 11.96875q-1.84375 0.46875 -3.8125 0.671875q-1.96875 0.203125 -4.0 0.203125q-5.90625 0 -8.8125 -2.671875q-2.90625 -2.671875 -2.90625 -8.203125l0 -16.375l-8.78125 0l0 -4.5625l8.78125 0l0 -8.625l5.4375 -1.40625l0 10.03125l14.09375 0l0 4.5625l-14.09375 0l0 15.9375q0 3.375 1.796875 5.046875q1.796875 1.671875 5.296875 1.671875q1.5 0 3.28125 -0.234375q1.78125 -0.234375 3.71875 -0.734375l0 4.6875z" fill-rule="nonzero"/><path fill="#000000" d="m384.75754 334.9413l-17.9375 0l0 -3.25l7.046875 -7.0q1.71875 -1.703125 2.796875 -2.953125q1.09375 -1.25 1.6875 -2.28125q0.609375 -1.03125 0.8125 -1.9375q0.21875 -0.921875 0.21875 -1.984375q0 -1.0 -0.28125 -1.90625q-0.265625 -0.90625 -0.828125 -1.59375q-0.5625 -0.6875 -1.46875 -1.078125q-0.890625 -0.40625 -2.140625 -0.40625q-1.71875 0 -3.140625 0.78125q-1.40625 0.765625 -2.59375 1.984375l-2.0 -2.390625q1.53125 -1.625 3.546875 -2.59375q2.015625 -0.984375 4.671875 -0.984375q1.8125 0 3.296875 0.546875q1.5 0.53125 2.578125 1.5625q1.078125 1.015625 1.671875 2.5q0.59375 1.46875 0.59375 3.328125q0 1.5625 -0.421875 2.890625q-0.40625 1.328125 -1.25 2.65625q-0.84375 1.328125 -2.125 2.75q-1.28125 1.40625 -3.03125 3.09375l-4.9375 4.8125l13.234375 0l0 3.453125z" fill-rule="nonzero"/><path fill="#000000" d="m410.9914 372.0663q-14.40625 -13.34375 -14.40625 -29.5q0 -3.78125 0.765625 -7.546875q0.765625 -3.765625 2.46875 -7.546875q1.703125 -3.78125 4.5 -7.5625q2.796875 -3.78125 6.796875 -7.5l3.15625 3.21875q-12.125 11.96875 -12.125 26.53125q0 7.25 3.0625 13.9375q3.0625 6.6875 9.0625 12.625l-3.28125 3.34375zm42.5625 -13.125l-25.65625 0l0 -5.0625l10.5 0l0 -29.8125l-9.78125 5.3125l-2.0 -4.625l13.0 -6.84375l4.8125 0l0 35.96875l9.125 0l0 5.0625zm30.96875 -14.46875l-18.6875 0l0 -5.125l18.6875 0l0 5.125zm38.53125 14.03125q-1.84375 0.46875 -3.8125 0.671875q-1.96875 0.203125 -4.0 0.203125q-5.90625 0 -8.8125 -2.671875q-2.90625 -2.671875 -2.90625 -8.203125l0 -16.375l-8.78125 0l0 -4.5625l8.78125 0l0 -8.625l5.4375 -1.40625l0 10.03125l14.09375 0l0 4.5625l-14.09375 0l0 15.9375q0 3.375 1.796875 5.046875q1.796875 1.671875 5.296875 1.671875q1.5 0 3.28125 -0.234375q1.78125 -0.234375 3.71875 -0.734375l0 4.6875zm16.3125 -46.09375q14.40625 13.34375 14.40625 29.6875q0 3.375 -0.6875 7.0q-0.6875 3.625 -2.34375 7.421875q-1.65625 3.796875 -4.453125 7.703125q-2.796875 3.90625 -7.046875 7.84375l-3.15625 -3.21875q6.09375 -6.03125 9.09375 -12.59375q3.0 -6.5625 3.0 -13.75q0 -14.875 -12.09375 -26.75l3.28125 -3.34375z" fill-rule="nonzero"/><path fill="#000000" d="m156.0388 458.91006q0 -4.0 1.09375 -7.109375q1.09375 -3.109375 3.109375 -5.25q2.015625 -2.140625 4.84375 -3.25q2.828125 -1.109375 6.296875 -1.109375q1.5 0 2.953125 0.1875q1.453125 0.1875 2.859375 0.59375l0 -13.1875l5.46875 0l0 44.15625l-4.875 0l-0.1875 -5.9375q-2.28125 3.3125 -4.9375 4.90625q-2.65625 1.59375 -5.75 1.59375q-2.6875 0 -4.734375 -1.125q-2.046875 -1.125 -3.40625 -3.171875q-1.359375 -2.046875 -2.046875 -4.921875q-0.6875 -2.875 -0.6875 -6.375zm5.5625 -0.34375q0 5.6875 1.671875 8.484375q1.671875 2.796875 4.734375 2.796875q2.0625 0 4.359375 -1.84375q2.296875 -1.84375 4.828125 -5.46875l0 -14.5625q-1.34375 -0.625 -2.96875 -0.953125q-1.625 -0.328125 -3.21875 -0.328125q-4.4375 0 -6.921875 2.875q-2.484375 2.875 -2.484375 9.0zm92.4375 -4.8125l-26.875 0l0 -4.59375l26.875 0l0 4.59375zm0 10.875l-26.875 0l0 -4.59375l26.875 0l0 4.59375zm69.624985 8.875q-1.84375 0.46875 -3.8125 0.671875q-1.96875 0.203125 -4.0 0.203125q-5.90625 0 -8.8125 -2.671875q-2.90625 -2.671875 -2.90625 -8.203125l0 -16.375l-8.78125 0l0 -4.5625l8.78125 0l0 -8.625l5.4375 -1.40625l0 10.03125l14.09375 0l0 4.5625l-14.09375 0l0 15.9375q0 3.375 1.796875 5.046875q1.796875 1.671875 5.296875 1.671875q1.5 0 3.28125 -0.234375q1.78125 -0.234375 3.71875 -0.734375l0 4.6875z" fill-rule="nonzero"/><path fill="#000000" d="m349.0388 441.6757q0 1.78125 -0.734375 3.359375q-0.71875 1.578125 -2.1875 2.75q-1.453125 1.171875 -3.65625 1.859375q-2.203125 0.671875 -5.140625 0.671875q-1.625 0 -2.921875 -0.109375q-1.28125 -0.09375 -2.40625 -0.265625l0 -3.25q1.28125 0.234375 2.71875 0.359375q1.4375 0.125 2.9375 0.125q2.046875 0 3.484375 -0.359375q1.453125 -0.375 2.359375 -1.0625q0.921875 -0.6875 1.34375 -1.65625q0.421875 -0.984375 0.421875 -2.21875q0 -1.125 -0.5 -1.953125q-0.5 -0.828125 -1.40625 -1.390625q-0.90625 -0.5625 -2.171875 -0.84375q-1.265625 -0.28125 -2.75 -0.28125l-3.109375 0l0 -2.984375l3.140625 0q1.234375 0 2.234375 -0.3125q1.015625 -0.328125 1.734375 -0.9375q0.71875 -0.609375 1.09375 -1.484375q0.390625 -0.890625 0.390625 -2.015625q0 -2.1875 -1.328125 -3.1875q-1.328125 -1.0 -3.90625 -1.0q-1.375 0 -2.84375 0.28125q-1.453125 0.265625 -3.125 0.796875l0 -3.15625q0.71875 -0.25 1.515625 -0.453125q0.796875 -0.203125 1.59375 -0.328125q0.8125 -0.140625 1.59375 -0.203125q0.796875 -0.078125 1.53125 -0.078125q2.15625 0 3.796875 0.46875q1.65625 0.46875 2.75 1.34375q1.109375 0.875 1.671875 2.125q0.5625 1.25 0.5625 2.8125q0 2.328125 -1.203125 3.921875q-1.1875 1.578125 -3.265625 2.515625q1.0625 0.15625 2.09375 0.65625q1.03125 0.5 1.84375 1.28125q0.828125 0.78125 1.328125 1.84375q0.515625 1.0625 0.515625 2.359375z" fill-rule="nonzero"/></g></svg>