<svg version="1.1" viewBox="0.0 0.0 1000.3333333333334 470.66666666666666" fill="none" stroke="none" stroke-linecap="square" stroke-miterlimit="10" xmlns:xlink="http://www.w3.org/1999/xlink" xmlns="http://www.w3.org/2000/svg"><clipPath id="p.0"><path d="m0 0l533.3333 0l0 170.66667l-533.3333 0l0 -170.66667z" clip-rule="nonzero"/></clipPath><g clip-path="url(#p.0)"><path fill="#000000" fill-opacity="0.0" d="m0 0l533.3333 0l0 170.66667l-533.3333 0z" fill-rule="evenodd"/><path fill="#000000" fill-opacity="0.0" d="m22.853018 42.280838l459.24408 0l0 71.968506l-459.24408 0z" fill-rule="evenodd"/><path fill="#000000" d="m47.57177 89.68084l-0.078125 -2.640625q-1.59375 1.578125 -3.25 2.296875q-1.640625 0.703125 -3.46875 0.703125q-1.671875 0 -2.875 -0.4375q-1.1875 -0.4375 -1.953125 -1.1875q-0.765625 -0.75 -1.140625 -1.765625q-0.359375 -1.015625 -0.359375 -2.203125q0 -2.953125 2.203125 -4.625q2.203125 -1.671875 6.5 -1.671875l4.0625 0l0 -1.71875q0 -1.734375 -1.125 -2.78125q-1.109375 -1.046875 -3.390625 -1.046875q-1.65625 0 -3.28125 0.375q-1.609375 0.375 -3.328125 1.0625l0 -3.078125q0.65625 -0.234375 1.4375 -0.453125q0.796875 -0.21875 1.671875 -0.390625q0.875 -0.1875 1.828125 -0.296875q0.96875 -0.109375 1.9375 -0.109375q1.78125 0 3.203125 0.390625q1.4375 0.390625 2.421875 1.203125q0.984375 0.796875 1.5 2.015625q0.53125 1.203125 0.53125 2.84375l0 13.515625l-3.046875 0zm-0.359375 -8.921875l-4.328125 0q-1.265625 0 -2.1875 0.25q-0.90625 0.25 -1.5 0.71875q-0.578125 0.46875 -0.875 1.125q-0.28125 0.65625 -0.28125 1.46875q0 0.578125 0.171875 1.09375q0.1875 0.515625 0.578125 0.921875q0.390625 0.390625 1.015625 0.625q0.625 0.234375 1.515625 0.234375q1.171875 0 2.6875 -0.703125q1.515625 -0.71875 3.203125 -2.265625l0 -3.46875zm26.476562 -8.796875q0 1.5625 -0.59375 3.09375q-0.578125 1.53125 -1.8125 2.75q-1.21875 1.203125 -3.140625 1.96875q-1.90625 0.75 -4.5625 0.75l-3.171875 0l0 9.15625l-3.46875 0l0 -25.53125l7.1875 0q1.890625 0 3.625 0.421875q1.734375 0.421875 3.046875 1.359375q1.328125 0.9375 2.109375 2.421875q0.78125 1.484375 0.78125 3.609375zm-3.609375 0.15625q0 -2.453125 -1.609375 -3.765625q-1.609375 -1.3125 -4.5 -1.3125l-3.5625 0l0 10.515625l3.25 0q3.078125 0 4.75 -1.34375q1.671875 -1.359375 1.671875 -4.09375z" fill-rule="nonzero"/><path fill="#000000" d="m89.35302 96.18084q0 1.953125 -0.390625 3.5625q-0.390625 1.609375 -1.1875 2.765625q-0.796875 1.140625 -1.984375 1.78125q-1.171875 0.625 -2.75 0.625q-1.375 0 -2.5 -0.515625q-1.109375 -0.515625 -1.90625 -1.578125q-0.796875 -1.0625 -1.234375 -2.71875q-0.421875 -1.65625 -0.421875 -3.921875q0 -1.953125 0.390625 -3.5625q0.40625 -1.609375 1.1875 -2.765625q0.796875 -1.15625 1.984375 -1.78125q1.1875 -0.640625 2.75 -0.640625q1.375 0 2.484375 0.515625q1.125 0.515625 1.921875 1.59375q0.796875 1.078125 1.21875 2.734375q0.4375 1.640625 0.4375 3.90625zm-2.296875 0.078125q0 -0.4375 -0.03125 -0.875q-0.03125 -0.4375 -0.078125 -0.859375l-7.1875 5.359375q0.1875 0.671875 0.484375 1.25q0.3125 0.5625 0.734375 0.984375q0.421875 0.40625 0.953125 0.640625q0.546875 0.21875 1.234375 0.21875q0.890625 0 1.609375 -0.421875q0.71875 -0.4375 1.21875 -1.28125q0.515625 -0.84375 0.78125 -2.09375q0.28125 -1.265625 0.28125 -2.921875zm-7.78125 -0.15625q0 0.40625 0 0.8125q0.015625 0.40625 0.046875 0.78125l7.203125 -5.328125q-0.203125 -0.671875 -0.5 -1.203125q-0.296875 -0.546875 -0.71875 -0.9375q-0.40625 -0.40625 -0.953125 -0.625q-0.53125 -0.234375 -1.1875 -0.234375q-0.890625 0 -1.609375 0.4375q-0.71875 0.421875 -1.234375 1.28125q-0.5 0.84375 -0.78125 2.109375q-0.265625 1.25 -0.265625 2.90625z" fill-rule="nonzero"/><path fill="#000000" d="m110.85227 80.52459l-7.6875 0l0 7.96875l-3.359375 0l0 -7.96875l-7.671875 0l0 -2.96875l7.671875 0l0 -7.921875l3.359375 0l0 7.921875l7.6875 0l0 2.96875zm21.52343 -1.0q0 2.4375 -0.6875 4.359375q-0.671875 1.921875 -1.90625 3.265625q-1.234375 1.34375 -3.0156174 2.0625q-1.78125 0.703125 -4.0 0.703125q-1.75 0 -3.5625 -0.328125q-1.8125 -0.34375 -3.59375 -1.0625l0 -26.437504l3.40625 0l0 7.593754l-0.15625 3.625q1.453125 -1.96875 3.125 -2.78125q1.671875 -0.8125 3.59375 -0.8125q1.671875 0 2.9374924 0.703125q1.28125 0.703125 2.140625 1.984375q0.859375 1.28125 1.28125 3.09375q0.4375 1.796875 0.4375 4.03125zm-3.484375 0.15625q0 -1.546875 -0.234375 -2.828125q-0.21875 -1.296875 -0.7031174 -2.203125q-0.484375 -0.921875 -1.25 -1.4375q-0.765625 -0.53125 -1.8125 -0.53125q-0.640625 0 -1.3125 0.21875q-0.65625 0.203125 -1.375 0.6875q-0.71875 0.46875 -1.515625 1.265625q-0.78125 0.78125 -1.671875 1.953125l0 9.515625q0.984375 0.390625 2.015625 0.625q1.046875 0.21875 1.984375 0.21875q1.171875 0 2.234375 -0.375q1.0625 -0.375 1.875 -1.234375q0.8125 -0.875 1.2812424 -2.3125q0.484375 -1.4375 0.484375 -3.5625zm25.429688 -7.71875q0 1.5625 -0.59375 3.09375q-0.578125 1.53125 -1.8125 2.75q-1.21875 1.203125 -3.140625 1.96875q-1.90625 0.75 -4.5625 0.75l-3.171875 0l0 9.15625l-3.46875 0l0 -25.53125l7.1875 0q1.890625 0 3.625 0.421875q1.734375 0.421875 3.046875 1.359375q1.328125 0.9375 2.109375 2.421875q0.78125 1.484375 0.78125 3.609375zm-3.609375 0.15625q0 -2.453125 -1.609375 -3.765625q-1.609375 -1.3125 -4.5 -1.3125l-3.5625 0l0 10.515625l3.25 0q3.078125 0 4.75 -1.34375q1.671875 -1.359375 1.671875 -4.09375z" fill-rule="nonzero"/><path fill="#000000" d="m169.45383 104.68084l-10.6875 0l0 -2.109375l4.375 0l0 -12.421875l-4.078125 2.21875l-0.84375 -1.921875l5.421875 -2.859375l2.0 0l0 14.984375l3.8125 0l0 2.109375z" fill-rule="nonzero"/><path fill="#000000" d="m191.48433 80.52459l-7.6875 0l0 7.96875l-3.359375 0l0 -7.96875l-7.671875 0l0 -2.96875l7.671875 0l0 -7.921875l3.359375 0l0 7.921875l7.6875 0l0 2.96875zm19.992188 8.4375q-1.328125 0.5 -2.734375 0.75q-1.390625 0.25 -2.875 0.25q-4.640625 0 -7.15625 -2.515625q-2.5 -2.53125 -2.5 -7.375q0 -2.328125 0.71875 -4.21875q0.71875 -1.890625 2.03125 -3.234375q1.3125 -1.359375 3.125 -2.09375q1.8125 -0.734375 4.0 -0.734375q1.53125 0 2.859375 0.21875q1.328125 0.21875 2.53125 0.703125l0 3.25q-1.265625 -0.671875 -2.59375 -0.96875q-1.3125 -0.3125 -2.71875 -0.3125q-1.3125 0 -2.46875 0.5q-1.15625 0.5 -2.046875 1.4375q-0.875 0.9375 -1.390625 2.296875q-0.5 1.34375 -0.5 3.03125q0 3.5625 1.71875 5.328125q1.734375 1.765625 4.8125 1.765625q1.375 0 2.671875 -0.3125q1.3125 -0.3125 2.515625 -0.9375l0 3.171875zm23.476562 -17.0q0 1.5625 -0.59375 3.09375q-0.578125 1.53125 -1.8125 2.75q-1.21875 1.203125 -3.140625 1.96875q-1.90625 0.75 -4.5625 0.75l-3.171875 0l0 9.15625l-3.46875 0l0 -25.53125l7.1875 0q1.890625 0 3.625 0.421875q1.734375 0.421875 3.046875 1.359375q1.328125 0.9375 2.109375 2.421875q0.78125 1.484375 0.78125 3.609375zm-3.609375 0.15625q0 -2.453125 -1.609375 -3.765625q-1.609375 -1.3125 -4.5 -1.3125l-3.5625 0l0 10.515625l3.25 0q3.078125 0 4.75 -1.34375q1.671875 -1.359375 1.671875 -4.09375z" fill-rule="nonzero"/><path fill="#000000" d="m250.22652 104.68084l-11.21875 0l0 -2.03125l4.40625 -4.375q1.078125 -1.0625 1.75 -1.84375q0.6875 -0.78125 1.0625 -1.421875q0.375 -0.65625 0.5 -1.21875q0.140625 -0.578125 0.140625 -1.234375q0 -0.625 -0.171875 -1.1875q-0.171875 -0.578125 -0.53125 -1.0q-0.34375 -0.4375 -0.90625 -0.671875q-0.5625 -0.25 -1.34375 -0.25q-1.078125 0 -1.96875 0.484375q-0.875 0.46875 -1.609375 1.234375l-1.25 -1.484375q0.953125 -1.015625 2.203125 -1.625q1.265625 -0.625 2.9375 -0.625q1.125 0 2.046875 0.34375q0.9375 0.34375 1.609375 0.984375q0.6875 0.625 1.046875 1.5625q0.375 0.921875 0.375 2.078125q0 0.96875 -0.265625 1.8125q-0.25 0.828125 -0.78125 1.65625q-0.515625 0.828125 -1.328125 1.71875q-0.796875 0.875 -1.890625 1.921875l-3.078125 3.015625l8.265625 0l0 2.15625z" fill-rule="nonzero"/><path fill="#000000" d="m272.1164 80.52459l-7.6875 0l0 7.96875l-3.359375 0l0 -7.96875l-7.671875 0l0 -2.96875l7.671875 0l0 -7.921875l3.359375 0l0 7.921875l7.6875 0l0 2.96875zm3.7578125 -0.234375q0 -2.5 0.6875 -4.4375q0.6875 -1.953125 1.9375 -3.28125q1.265625 -1.34375 3.03125 -2.03125q1.765625 -0.703125 3.9375 -0.703125q0.9375 0 1.84375 0.125q0.90625 0.109375 1.796875 0.359375l0 -8.234379l3.40625 0l0 27.593754l-3.046875 0l-0.109375 -3.71875q-1.421875 2.078125 -3.09375 3.078125q-1.65625 1.0 -3.59375 1.0q-1.671875 0 -2.953125 -0.703125q-1.28125 -0.71875 -2.140625 -1.984375q-0.84375 -1.28125 -1.28125 -3.078125q-0.421875 -1.796875 -0.421875 -3.984375zm3.484375 -0.21875q0 3.546875 1.046875 5.296875q1.046875 1.75 2.953125 1.75q1.296875 0 2.71875 -1.140625q1.4375 -1.15625 3.03125 -3.421875l0 -9.109375q-0.84375 -0.390625 -1.859375 -0.59375q-1.015625 -0.203125 -2.015625 -0.203125q-2.765625 0 -4.328125 1.796875q-1.546875 1.796875 -1.546875 5.625zm36.226562 -8.109375q0 1.5625 -0.59375 3.09375q-0.578125 1.53125 -1.8125 2.75q-1.21875 1.203125 -3.140625 1.96875q-1.90625 0.75 -4.5625 0.75l-3.171875 0l0 9.15625l-3.46875 0l0 -25.53125l7.1875 0q1.890625 0 3.625 0.421875q1.734375 0.421875 3.046875 1.359375q1.328125 0.9375 2.109375 2.421875q0.78125 1.484375 0.78125 3.609375zm-3.609375 0.15625q0 -2.453125 -1.609375 -3.765625q-1.609375 -1.3125 -4.5 -1.3125l-3.5625 0l0 10.515625l3.25 0q3.078125 0 4.75 -1.34375q1.671875 -1.359375 1.671875 -4.09375z" fill-rule="nonzero"/><path fill="#000000" d="m330.53046 99.508965q0 1.125 -0.453125 2.109375q-0.453125 0.984375 -1.375 1.71875q-0.90625 0.734375 -2.296875 1.15625q-1.375 0.421875 -3.203125 0.421875q-1.015625 0 -1.828125 -0.0625q-0.796875 -0.0625 -1.5 -0.171875l0 -2.03125q0.796875 0.140625 1.6875 0.21875q0.90625 0.078125 1.84375 0.078125q1.28125 0 2.1875 -0.21875q0.90625 -0.234375 1.46875 -0.65625q0.578125 -0.4375 0.828125 -1.046875q0.265625 -0.609375 0.265625 -1.375q0 -0.703125 -0.3125 -1.21875q-0.3125 -0.53125 -0.875 -0.875q-0.5625 -0.359375 -1.359375 -0.53125q-0.78125 -0.171875 -1.71875 -0.171875l-1.9375 0l0 -1.875l1.96875 0q0.765625 0 1.390625 -0.1875q0.640625 -0.203125 1.078125 -0.578125q0.453125 -0.390625 0.6875 -0.9375q0.25 -0.5625 0.25 -1.265625q0 -1.359375 -0.84375 -1.984375q-0.828125 -0.625 -2.4375 -0.625q-0.859375 0 -1.78125 0.171875q-0.90625 0.171875 -1.9375 0.5l0 -1.96875q0.4375 -0.15625 0.9375 -0.28125q0.5 -0.125 1.0 -0.203125q0.5 -0.09375 1.0 -0.140625q0.5 -0.046875 0.953125 -0.046875q1.34375 0 2.375 0.296875q1.03125 0.296875 1.71875 0.84375q0.6875 0.546875 1.03125 1.328125q0.359375 0.78125 0.359375 1.75q0 1.453125 -0.75 2.453125q-0.734375 0.984375 -2.046875 1.578125q0.671875 0.09375 1.3125 0.40625q0.640625 0.3125 1.15625 0.8125q0.515625 0.484375 0.828125 1.15625q0.328125 0.65625 0.328125 1.453125z" fill-rule="nonzero"/><path fill="#000000" fill-opacity="0.0" d="m380.86615 50.824146l177.60626 0l0 59.559055l-177.60626 0z" fill-rule="evenodd"/><path fill="#000000" d="m406.0849 80.34103q0 2.34375 -0.46875 4.28125q-0.46875 1.921875 -1.421875 3.3125q-0.953125 1.375 -2.375 2.140625q-1.40625 0.75 -3.3125 0.75q-1.640625 0 -2.984375 -0.609375q-1.34375 -0.625 -2.296875 -1.90625q-0.953125 -1.28125 -1.46875 -3.265625q-0.515625 -1.984375 -0.515625 -4.703125q0 -2.34375 0.46875 -4.28125q0.484375 -1.9375 1.421875 -3.3125q0.953125 -1.390625 2.375 -2.140625q1.421875 -0.765625 3.3125 -0.765625q1.640625 0 2.984375 0.625q1.34375 0.609375 2.296875 1.90625q0.953125 1.28125 1.46875 3.265625q0.515625 1.984375 0.515625 4.703125zm-2.75 0.09375q0 -0.53125 -0.046875 -1.046875q-0.03125 -0.53125 -0.078125 -1.03125l-8.640625 6.421875q0.234375 0.8125 0.59375 1.5q0.359375 0.6875 0.859375 1.1875q0.515625 0.484375 1.15625 0.765625q0.65625 0.265625 1.484375 0.265625q1.0625 0 1.921875 -0.515625q0.875 -0.515625 1.484375 -1.53125q0.609375 -1.015625 0.9375 -2.515625q0.328125 -1.515625 0.328125 -3.5zm-9.34375 -0.1875q0 0.484375 0 0.96875q0.015625 0.484375 0.0625 0.9375l8.640625 -6.390625q-0.234375 -0.796875 -0.59375 -1.453125q-0.359375 -0.65625 -0.859375 -1.125q-0.5 -0.484375 -1.140625 -0.75q-0.640625 -0.265625 -1.4375 -0.265625q-1.0625 0 -1.9375 0.515625q-0.859375 0.515625 -1.46875 1.546875q-0.609375 1.015625 -0.9375 2.53125q-0.328125 1.5 -0.328125 3.484375z" fill-rule="nonzero"/><path fill="#000000" d="m408.66302 78.6379l0 -2.625l15.171875 -6.40625l0 2.8125l-12.03125 4.921875l12.03125 4.984375l0 2.796875l-15.171875 -6.484375zm15.140625 10.25l-15.125 0l0 -2.609375l15.125 0l0 2.609375z" fill-rule="nonzero"/><path fill="#000000" d="m440.16302 90.3254q-0.921875 0.234375 -1.90625 0.328125q-0.984375 0.109375 -2.0 0.109375q-2.953125 0 -4.40625 -1.328125q-1.453125 -1.34375 -1.453125 -4.109375l0 -8.1875l-4.390625 0l0 -2.28125l4.390625 0l0 -4.3125l2.71875 -0.703125l0 5.015625l7.046875 0l0 2.28125l-7.046875 0l0 7.96875q0 1.6875 0.890625 2.53125q0.90625 0.828125 2.65625 0.828125q0.75 0 1.640625 -0.109375q0.890625 -0.125 1.859375 -0.375l0 2.34375z" fill-rule="nonzero"/><path fill="#000000" d="m443.81927 78.6379l0 -2.625l15.171875 -6.40625l0 2.8125l-12.03125 4.921875l12.03125 4.984375l0 2.796875l-15.171875 -6.484375zm15.140625 10.25l-15.125 0l0 -2.609375l15.125 0l0 2.609375z" fill-rule="nonzero"/><path fill="#000000" d="m475.75677 90.54415l-12.828125 0l0 -2.53125l5.25 0l0 -14.90625l-4.890625 2.65625l-1.0 -2.3125l6.5 -3.421875l2.40625 0l0 17.984375l4.5625 0l0 2.53125z" fill-rule="nonzero"/></g></svg>